<?xml version="1.0" standalone="no"?><!DOCTYPE svg PUBLIC "-//W3C//DTD SVG 1.1//EN" "http://www.w3.org/Graphics/SVG/1.1/DTD/svg11.dtd"><svg t="1771846040938" class="icon" viewBox="0 0 1200 1024" version="1.1" xmlns="http://www.w3.org/2000/svg" p-id="7196" data-spm-anchor-id="a313x.search_index.0.i5.719f3a81d2SeOq" xmlns:xlink="http://www.w3.org/1999/xlink" width="234.375" height="200"><path d="M740.34023 81.331494c29.048644 0 52.612414 23.457839 52.612414 52.412322a52.482943 52.482943 0 0 1-42.678437 51.458943l-2.471724 0.411954-2.07154 0.247172-30.943633 52.965517h100.30492c25.423448 0.02354 49.858207 9.651494 68.384368 26.835862l2.612965 2.518805a99.892966 99.892966 0 0 1 29.307586 67.089655l0.058851 3.672276v319.158437c0 54.095448-43.184552 98.33931-97.421241 99.987126l-3.03669 0.047081h-437.612874a100.681563 100.681563 0 0 1-71.091494-29.248736 99.892966 99.892966 0 0 1-29.389977-67.113195l-0.070621-3.672276V338.95577a99.810575 99.810575 0 0 1 29.437058-70.844322 100.728644 100.728644 0 0 1 67.442759-29.225195l3.672275-0.058851h100.410851l-30.70823-52.718345-0.706207-0.01177a52.541793 52.541793 0 0 1-49.905287-47.374712l-0.176552-2.507035-0.05885-2.471724c0-28.954483 23.56377-52.412322 52.612413-52.412322 29.060414 0 52.612414 23.457839 52.612414 52.412322 0 5.225931-0.765057 10.357701-2.248092 15.230529l-0.976919 2.907218-0.97692 2.401104 0.612046 1.000459 48.434023 83.532506h99.645793l47.527724-81.213793-1.177011-2.424644a51.894437 51.894437 0 0 1-4.201931-15.065747l-0.294253-3.177931-0.094161-3.177931c0-28.954483 23.56377-52.424092 52.612414-52.424092z m-46.185931 169.254253H377.491126l-3.472183 0.070621c-22.363218 0.823908-43.608276 10.028138-59.439081 25.800092a88.064 88.064 0 0 0-25.976644 62.49931v319.040736l0.070621 3.448643a88.064 88.064 0 0 0 25.929563 59.085977 88.911448 88.911448 0 0 0 62.781793 25.835403h437.530483l2.848368-0.035311c47.810207-1.459494 85.921839-40.512736 85.921839-88.228781V339.049931l-0.058851-3.448644a88.064 88.064 0 0 0-25.847172-59.085977 88.911448 88.911448 0 0 0-62.687632-25.929563H694.154299zM740.34023 93.101609a40.748138 40.748138 0 0 0-40.854069 40.642207c0 6.544184 1.553655 12.852966 4.472644 18.502621l1.330023 2.389333 1.777287 2.942529-2.201012 3.895908-45.232551 77.306115 41.524965 0.03531 34.674759-59.344919 0.376644-0.694437 1.977379-4.366713h0.258942l0.082391-0.141241 0.647357 0.117701 3.201471-0.04708a40.724598 40.724598 0 0 0 38.806069-40.595127A40.748138 40.748138 0 0 0 740.34023 93.101609z m-291.486897 0a40.748138 40.748138 0 0 0-40.842299 40.642207 40.724598 40.724598 0 0 0 38.488276 40.583356l2.212782 0.058851 5.626115-0.129471 1.942069 4.190161 0.306023 0.588505 34.733609 59.603862 41.301333 0.023541-45.679816-78.76561-3.283862-4.566804 1.636046-3.189701c2.883678-5.649655 4.413793-11.911356 4.413793-18.39669a40.748138 40.748138 0 0 0-40.842299-40.642207z m-10.510712 18.902805a11.770115 11.770115 0 1 1 0 23.54023 11.770115 11.770115 0 0 1 0-23.54023z m294.252873 0a11.770115 11.770115 0 1 1 0 23.54023 11.770115 11.770115 0 0 1 0-23.54023z" fill="#b44bc6" p-id="7197"></path><path d="M403.609011 576.782713m-70.620689 0a70.62069 70.62069 0 1 0 141.241379 0 70.62069 70.62069 0 1 0-141.241379 0Z" fill="#b44bc6" p-id="7198"></path><path d="M792.022805 576.782713m-70.62069 0a70.62069 70.62069 0 1 0 141.241379 0 70.62069 70.62069 0 1 0-141.241379 0Z" fill="#b44bc6" p-id="7199"></path><path d="M647.356322 635.586207a5.885057 5.885057 0 0 0 5.885057-5.885058 58.850575 58.850575 0 0 0-117.701149 0 5.885057 5.885057 0 1 0 11.770115 0 47.08046 47.08046 0 1 1 94.160919 0 5.885057 5.885057 0 0 0 5.885058 5.885058z" fill="#b44bc6" p-id="7200" data-spm-anchor-id="a313x.search_index.0.i6.719f3a81d2SeOq" class=""></path><path d="M459.034483 388.413793a35.310345 35.310345 0 1 1 0 70.62069 35.310345 35.310345 0 0 1 0-70.62069z m-10.24 6.685425a17.655172 17.655172 0 1 0 0 35.310345 17.655172 17.655172 0 0 0 0-35.310345zM729.747126 388.413793a35.310345 35.310345 0 1 1 0 70.62069 35.310345 35.310345 0 0 1 0-70.62069z m-10.24 6.685425a17.655172 17.655172 0 1 0 0 35.310345 17.655172 17.655172 0 0 0 0-35.310345z" fill="#b44bc6" p-id="7201"></path><path d="M417.83908 865.162299a5.885057 5.885057 0 0 1 5.790897 4.825747l0.094161 1.05931v82.390805a5.885057 5.885057 0 0 1-11.675954 1.05931l-0.094161-1.05931v-82.390805a5.885057 5.885057 0 0 1 5.885057-5.885057z m371.264736 0a5.885057 5.885057 0 0 1 5.790897 4.825747l0.094161 1.05931v82.390805a5.885057 5.885057 0 0 1-11.675954 1.05931l-0.094161-1.05931v-82.390805a5.885057 5.885057 0 0 1 5.885057-5.885057z m-424.736368 23.928644a5.885057 5.885057 0 0 1 5.790897 4.825747l0.094161 1.05931v35.310345a5.885057 5.885057 0 0 1-11.675954 1.05931l-0.094161-1.05931v-35.310345a5.885057 5.885057 0 0 1 5.885057-5.885057z m371.264736 0a5.885057 5.885057 0 0 1 5.790896 4.825747l0.094161 1.05931v35.310345a5.885057 5.885057 0 0 1-11.675954 1.05931l-0.094161-1.05931v-35.310345a5.885057 5.885057 0 0 1 5.885058-5.885057z m-270.712644-82.838069a5.885057 5.885057 0 0 1 5.790897 4.825747L470.804598 812.137931v105.931035a5.885057 5.885057 0 0 1-11.675954 1.05931L459.034483 918.068966v-105.931035a5.885057 5.885057 0 0 1 5.885057-5.885057z m371.264736 0a5.885057 5.885057 0 0 1 5.790896 4.825747l0.094161 1.05931v105.931035a5.885057 5.885057 0 0 1-11.675954 1.05931l-0.094161-1.05931v-105.931035a5.885057 5.885057 0 0 1 5.885058-5.885057z m-471.816828-11.381702a5.885057 5.885057 0 0 1 5.790897 4.825748l0.094161 1.05931v70.63246a5.885057 5.885057 0 0 1-11.675954 1.05931l-0.094161-1.05931v-70.62069a5.885057 5.885057 0 0 1 5.885057-5.885057z m371.264736 0a5.885057 5.885057 0 0 1 5.790896 4.825748l0.094161 1.05931v70.63246a5.885057 5.885057 0 0 1-11.675954 1.05931l-0.094161-1.05931v-70.62069a5.885057 5.885057 0 0 1 5.885058-5.885057z m-317.793104-12.158528a5.885057 5.885057 0 0 1 5.790897 4.825747L423.724138 788.597701v58.862345a5.885057 5.885057 0 0 1-11.675954 1.05931l-0.094161-1.05931V788.597701a5.885057 5.885057 0 0 1 5.885057-5.885057z m371.264736 0a5.885057 5.885057 0 0 1 5.790897 4.825747l0.094161 1.05931v58.862345a5.885057 5.885057 0 0 1-11.675954 1.05931l-0.094161-1.05931V788.597701a5.885057 5.885057 0 0 1 5.885057-5.885057zM1059.310345 247.172414a35.310345 35.310345 0 1 1 0 70.620689 35.310345 35.310345 0 0 1 0-70.620689z m0 11.770115a23.54023 23.54023 0 1 0 0 47.08046 23.54023 23.54023 0 0 0 0-47.08046zM129.471264 117.701149a35.310345 35.310345 0 1 1 0 70.62069 35.310345 35.310345 0 0 1 0-70.62069z m0 11.770115a23.54023 23.54023 0 1 0 0 47.08046 23.54023 23.54023 0 0 0 0-47.08046z" fill="#b44bc6" p-id="7202"></path><path d="M35.310345 517.885057m-35.310345 0a35.310345 35.310345 0 1 0 70.62069 0 35.310345 35.310345 0 1 0-70.62069 0Z" fill="#b44bc6" p-id="7203"></path><path d="M188.321839 306.022989m-23.54023 0a23.54023 23.54023 0 1 0 47.08046 0 23.54023 23.54023 0 1 0-47.08046 0Z" fill="#b44bc6" p-id="7204"></path><path d="M553.195402 23.54023m-23.54023 0a23.54023 23.54023 0 1 0 47.08046 0 23.54023 23.54023 0 1 0-47.08046 0Z" fill="#b44bc6" p-id="7205"></path><path d="M953.37931 117.701149m-23.54023 0a23.54023 23.54023 0 1 0 47.08046 0 23.54023 23.54023 0 1 0-47.08046 0Z" fill="#b44bc6" p-id="7206"></path><path d="M1153.471264 600.275862a47.08046 47.08046 0 1 1 0 94.16092 47.08046 47.08046 0 0 1 0-94.16092z m0 11.770115a35.310345 35.310345 0 1 0 0 70.62069 35.310345 35.310345 0 0 0 0-70.62069zM1041.655172 482.574713a5.885057 5.885057 0 0 1 5.790897 4.825747l0.094161 1.05931-0.01177 41.183632L1088.735632 529.655172a5.885057 5.885057 0 0 1 1.059311 11.675954L1088.735632 541.425287l-41.207172-0.01177L1047.54023 582.62069a5.885057 5.885057 0 0 1-11.675954 1.05931L1035.770115 582.62069l-0.01177-41.207173L994.574713 541.425287a5.885057 5.885057 0 0 1-1.059311-11.675954L994.574713 529.655172l41.183632-0.01177L1035.770115 488.45977a5.885057 5.885057 0 0 1 5.885057-5.885057zM147.126437 682.666667a5.885057 5.885057 0 0 1 5.790896 4.825747l0.094161 1.05931-0.01177 41.183632L194.206897 729.747126a5.885057 5.885057 0 0 1 1.05931 11.675954L194.206897 741.517241l-41.207173-0.01177L153.011494 782.712644a5.885057 5.885057 0 0 1-11.675954 1.05931L141.241379 782.712644l-0.01177-41.207173L100.045977 741.517241a5.885057 5.885057 0 0 1-1.05931-11.675954L100.045977 729.747126l41.183632-0.01177L141.241379 688.551724a5.885057 5.885057 0 0 1 5.885058-5.885057z" fill="#b44bc6" p-id="7207"></path></svg>