<?xml version="1.0" standalone="no"?><!DOCTYPE svg PUBLIC "-//W3C//DTD SVG 1.1//EN" "http://www.w3.org/Graphics/SVG/1.1/DTD/svg11.dtd"><svg t="1771974876207" class="icon" viewBox="0 0 1024 1024" version="1.1" xmlns="http://www.w3.org/2000/svg" p-id="7431" xmlns:xlink="http://www.w3.org/1999/xlink" width="200" height="200"><path d="M85.328 324.256h853.344v580.288H85.328z" fill="#EBEBEB" p-id="7432"></path><path d="M232.288 904.528h706.384V324.256h-87.04z" fill="#E0E0E0" p-id="7433"></path><path d="M17.056 904.528h989.872v68.256H17.056zM85.328 119.472V51.184h853.344v68.288" fill="#D1D1D1" p-id="7434"></path><path d="M153.6 529.056h477.872v273.056H153.6zM699.728 529.056H870.4v375.472H699.728z" fill="#4398D1" p-id="7435"></path><path d="M336.432 609.392l-68.288 68.32-24.128-24.128 68.288-68.32zM455.92 592.304l-153.6 153.6-24.16-24.128 153.616-153.616zM490.112 677.504l-68.32 68.272-24.112-24.144 68.32-68.272z" fill="#87CED9" p-id="7436"></path><path d="M443.728 324.256V358.4a68.272 68.272 0 0 0 136.544 0v-34.16h-136.544z" fill="#FFA83D" p-id="7437"></path><path d="M307.2 324.256V358.4a68.272 68.272 0 0 0 136.544 0v-34.16H307.2z" fill="#C74436" p-id="7438"></path><path d="M170.672 324.256V358.4a68.288 68.288 0 0 0 136.544 0v-34.16h-136.544z" fill="#FFA83D" p-id="7439"></path><path d="M34.128 324.256V358.4a68.288 68.288 0 0 0 136.544 0v-34.16H34.128zM853.328 324.256V358.4a68.288 68.288 0 0 0 136.544 0v-34.16h-136.544z" fill="#C74436" p-id="7440"></path><path d="M580.272 324.256V358.4a68.272 68.272 0 0 0 136.528 0v-34.16h-136.528z" fill="#C74436" p-id="7441"></path><path d="M204.8 119.472l-34.128 204.784H307.2l17.072-204.784z" fill="#FDB62F" p-id="7442"></path><path d="M85.328 119.472l-51.2 204.784h136.544L204.8 119.472zM324.272 119.472L307.2 324.256h136.528V119.472zM938.672 119.472H819.2l34.128 204.784h136.544z" fill="#DE4C3C" p-id="7443"></path><path d="M443.728 119.472h136.528v204.784h-136.528zM699.728 119.472L716.8 324.256h136.528L819.2 119.472z" fill="#FDB62F" p-id="7444"></path><path d="M580.272 119.472v204.784H716.8L699.728 119.472z" fill="#DE4C3C" p-id="7445"></path><path d="M1006.944 887.472h-51.2V436.56a85.36 85.36 0 0 0 51.2-78.16v-34.16a15.952 15.952 0 0 0 0-4.096l-51.2-202.752V51.184c0-9.408-7.648-17.056-17.056-17.056H85.328c-9.408 0-17.056 7.664-17.056 17.056v66.224l-51.2 202.752c-0.16 1.376-0.16 2.752 0 4.096V358.4a85.36 85.36 0 0 0 51.2 78.16v450.912h-51.2c-9.424 0-17.072 7.616-17.072 17.056v68.256c0 9.44 7.648 17.088 17.056 17.088h989.872c9.408 0 17.056-7.664 17.056-17.088v-68.256a17.024 17.024 0 0 0-17.04-17.056zM921.6 409.6a51.184 51.184 0 0 1-51.2-51.184v-17.056h102.4V358.4a51.2 51.2 0 0 1-51.2 51.2zM305.664 136.528l-14.16 170.656h-100.688l28.496-170.656h86.352z m499.024 0l28.496 170.656h-100.688l-14.16-170.656h86.352z m-120.656 0l14.16 170.656h-100.864V136.528h86.704zM563.2 307.184h-102.4V136.528h102.4v170.656z m-136.528 0h-100.864l14.16-170.656h86.688v170.656z m-238.944 34.16h102.4V358.4a51.184 51.184 0 0 1-51.2 51.184 51.184 51.184 0 0 1-51.2-51.184v-17.056z m136.544 0h102.4V358.4c0 28.288-22.912 51.184-51.2 51.184s-51.2-22.912-51.2-51.184v-17.056z m136.528 0h102.4V358.4a51.2 51.2 0 1 1-102.4 0v-17.056z m136.528 0h102.4V358.4a51.2 51.2 0 1 1-102.4 0v-17.056z m136.544 0h102.4V358.4a51.2 51.2 0 1 1-102.4 0v-17.056z m133.968-34.16L839.344 136.528h85.328l42.672 170.656H867.84zM921.6 68.256V102.4H102.4V68.256h819.2zM98.64 136.528h85.328L156.16 307.184H55.984L98.64 136.528zM51.2 358.4v-17.056h102.4V358.4a51.184 51.184 0 0 1-51.2 51.184A51.168 51.168 0 0 1 51.2 358.4z m51.2 85.312a85.28 85.28 0 0 0 68.272-34.128 85.344 85.344 0 0 0 136.544 0 85.328 85.328 0 0 0 136.528 0 85.344 85.344 0 0 0 136.528 0 85.344 85.344 0 0 0 136.528 0 85.344 85.344 0 0 0 136.528 0 85.28 85.28 0 0 0 68.272 34.128v443.744h-34.128v-358.4c0-9.408-7.648-17.056-17.072-17.056H699.728c-9.424 0-17.056 7.664-17.056 17.056v358.4H102.4V443.712z m750.928 443.76H716.8V546.128h136.528v341.344z m136.544 68.24H34.128V921.6h955.728v34.112z" p-id="7446"></path><path d="M631.472 512H153.6c-9.424 0-17.072 7.664-17.072 17.056v273.056c0 9.44 7.648 17.056 17.072 17.056h477.872c9.424 0 17.056-7.632 17.056-17.056V529.056c0-9.392-7.632-17.056-17.056-17.056zM614.4 785.056H170.672V546.128H614.4v238.928z" p-id="7447"></path><path d="M336.432 609.392l-68.288 68.32-24.128-24.128 68.288-68.32zM455.92 592.304l-153.6 153.6-24.16-24.128 153.616-153.616zM490.112 677.504l-68.32 68.272-24.112-24.144 68.32-68.272z" p-id="7448"></path></svg>